<svg height="512" viewBox="0 0 64 64" width="512" xmlns="http://www.w3.org/2000/svg" xmlns:xlink="http://www.w3.org/1999/xlink"><linearGradient id="linear-gradient" gradientUnits="userSpaceOnUse" x2="58.061" y1="61" y2="2.939"><stop offset="0" stop-color="#003f8a"/><stop offset=".518" stop-color="#00d7df"/><stop offset="1" stop-color="#006df0"/></linearGradient><linearGradient id="linear-gradient-2" x1="2" x2="60.061" xlink:href="#linear-gradient" y1="63" y2="4.939"/><linearGradient id="linear-gradient-3" x1="-5" x2="53.061" xlink:href="#linear-gradient" y1="56" y2="-2.061"/><linearGradient id="linear-gradient-4" x1="-1.5" x2="56.561" xlink:href="#linear-gradient" y1="59.5" y2="1.439"/><linearGradient id="linear-gradient-5" x1="-5.25" x2="52.811" xlink:href="#linear-gradient" y1="55.75" y2="-2.311"/><linearGradient id="linear-gradient-6" x1="-1.75" x2="56.311" xlink:href="#linear-gradient" y1="59.25" y2="1.189"/><path d="m60 12h-56a3 3 0 0 0 -3 3v28a3 3 0 0 0 3 3h21.523l-1.2 3h-2.323a1 1 0 0 0 -.948.684l-1 3a1 1 0 0 0 .948 1.316h22a1 1 0 0 0 .948-1.316l-1-3a1 1 0 0 0 -.948-.684h-2.323l-1.2-3h21.523a3 3 0 0 0 3-3v-28a3 3 0 0 0 -3-3zm-57 3a1 1 0 0 1 1-1h56a1 1 0 0 1 1 1v23h-58zm38.612 37h-19.224l.333-1h18.558zm-4.089-3h-11.046l1.2-3h8.646zm23.477-6a1 1 0 0 1 -1 1h-56a1 1 0 0 1 -1-1v-3h58z" fill="url(#linear-gradient)"/><path d="m39.707 18.293a1 1 0 0 0 -1.414 1.414l6.293 6.293-6.293 6.293a1 1 0 1 0 1.414 1.414l7-7a1 1 0 0 0 0-1.414z" fill="url(#linear-gradient-2)"/><path d="m25.707 18.293a1 1 0 0 0 -1.414 0l-7 7a1 1 0 0 0 0 1.414l7 7a1 1 0 0 0 1.414-1.414l-6.293-6.293 6.293-6.293a1 1 0 0 0 0-1.414z" fill="url(#linear-gradient-3)"/><path d="m35.394 18.081a1 1 0 0 0 -1.313.525l-6 14a1 1 0 1 0 1.838.788l6-14a1 1 0 0 0 -.525-1.313z" fill="url(#linear-gradient-4)"/><path d="m5 43h7a1 1 0 0 0 0-2h-7a1 1 0 0 0 0 2z" fill="url(#linear-gradient-5)"/><path d="m15 43h1a1 1 0 0 0 0-2h-1a1 1 0 0 0 0 2z" fill="url(#linear-gradient-6)"/></svg>